# xmcd CD database file
#
# Track frame offsets:
#	150
#	18912
#	39447
#	62132
#	82876
#	100992
#	122948
#	139194
#	157984
#	176957
#	194560
#	208492
#
# Disc length: 3106 seconds
#
# Revision: 0
# Processed by: cddbd v1.5.1PL2 Copyright (c) Steve Scherf et al.
# Submitted via: CDex 1.51
#
DISCID=ad0c200c
DTITLE=Sean Ardoin and Zydekool - Home Brew
DYEAR=2003
DGENRE=Zydeco
TTITLE0=If U Want Me
TTITLE1=Down In Louisiana
TTITLE2=Back To You
TTITLE3=Home Brew
TTITLE4=Fumba Laka Chumba
TTITLE5=Love, All For You
TTITLE6=I'm Still Here
TTITLE7=Do Your Dance
TTITLE8=The Call (I Miss You)
TTITLE9=Around The World
TTITLE10=Back Porch
TTITLE11=Kemo Sabe
EXTD=YEAR: 2003
EXTT0=
EXTT1=
EXTT2=
EXTT3=
EXTT4=
EXTT5=
EXTT6=
EXTT7=
EXTT8=
EXTT9=
EXTT10=
EXTT11=
PLAYORDER=
